<svg width="59" height="43" viewBox="0 0 59 43" fill="none" xmlns="http://www.w3.org/2000/svg">
<path d="M22.2266 6.82812H17.75V16H15.7188V6.82812H11.2344V4.79688H22.2266V6.82812ZM34.7812 14.9766C34.7812 15.1224 34.7552 15.2578 34.7031 15.3828C34.651 15.5078 34.5781 15.6172 34.4844 15.7109C34.3958 15.7995 34.2891 15.8698 34.1641 15.9219C34.0391 15.974 33.9036 16 33.7578 16H26.4297C26.2422 16 26.0391 15.9792 25.8203 15.9375C25.6068 15.8906 25.3932 15.8203 25.1797 15.7266C24.9714 15.6328 24.7708 15.513 24.5781 15.3672C24.3854 15.2161 24.2135 15.0365 24.0625 14.8281C23.9167 14.6146 23.7995 14.3698 23.7109 14.0938C23.6224 13.8125 23.5781 13.4974 23.5781 13.1484V7.64844C23.5781 7.46094 23.599 7.26042 23.6406 7.04688C23.6875 6.82812 23.7578 6.61458 23.8516 6.40625C23.9453 6.19271 24.0677 5.98958 24.2188 5.79688C24.3698 5.60417 24.5495 5.4349 24.7578 5.28906C24.9714 5.13802 25.2161 5.01823 25.4922 4.92969C25.7682 4.84115 26.0807 4.79688 26.4297 4.79688H34.6875V6.82812H26.4297C26.1641 6.82812 25.9609 6.89844 25.8203 7.03906C25.6797 7.17969 25.6094 7.38802 25.6094 7.66406V13.1484C25.6094 13.4089 25.6797 13.612 25.8203 13.7578C25.9661 13.8984 26.1693 13.9688 26.4297 13.9688H32.75V11.4219H27.3438V9.375H33.7578C33.9036 9.375 34.0391 9.40365 34.1641 9.46094C34.2891 9.51302 34.3958 9.58594 34.4844 9.67969C34.5781 9.77344 34.651 9.88281 34.7031 10.0078C34.7552 10.1276 34.7812 10.2578 34.7812 10.3984V14.9766ZM47.8906 16H45.8594V13.25H38.7188V16H36.6875V10.3984C36.6875 9.58073 36.8281 8.82812 37.1094 8.14062C37.3906 7.45312 37.7812 6.86198 38.2812 6.36719C38.7812 5.8724 39.3724 5.48698 40.0547 5.21094C40.737 4.9349 41.4818 4.79688 42.2891 4.79688H46.8672C47.0078 4.79688 47.1406 4.82292 47.2656 4.875C47.3906 4.92708 47.5 5 47.5938 5.09375C47.6875 5.1875 47.7604 5.29688 47.8125 5.42188C47.8646 5.54688 47.8906 5.67969 47.8906 5.82031V16ZM38.7188 11.2188H45.8594V6.82812H42.2891C42.2266 6.82812 42.0938 6.83854 41.8906 6.85938C41.6927 6.875 41.4609 6.91927 41.1953 6.99219C40.9349 7.0651 40.6589 7.17708 40.3672 7.32812C40.0755 7.47917 39.8073 7.6875 39.5625 7.95312C39.3177 8.21875 39.1146 8.55208 38.9531 8.95312C38.7969 9.34896 38.7188 9.83073 38.7188 10.3984V11.2188Z" fill="white"/>
<path d="M1.66504 28.1758V21.584L2.13086 21.3643H4.91699V21.4082L4.56104 22.1641H2.54395V24.2822H4.91699V24.3262L4.56104 25.082H2.54395V27.7803L1.70898 28.1758H1.66504ZM7.46582 24.9678H8.71826C9.01123 24.9678 9.28076 24.9194 9.52686 24.8228C9.88135 24.6821 10.0586 24.5107 10.0586 24.3086V22.8145C10.0586 22.6094 9.88135 22.438 9.52686 22.3003C9.28076 22.2036 9.01123 22.1553 8.71826 22.1553H7.46582V24.9678ZM6.58691 28.1758V21.584L7.05273 21.3643H8.71826C9.16064 21.3643 9.56787 21.4419 9.93994 21.5972C10.605 21.8726 10.9375 22.2783 10.9375 22.8145V24.3086C10.9375 24.8477 10.605 25.2534 9.93994 25.5259C9.81104 25.5786 9.67773 25.6226 9.54004 25.6577L11.043 27.811L10.2695 28.1758H10.2256L8.53369 25.7588H7.46582V27.7803L6.63086 28.1758H6.58691ZM17.0195 25.583V26.6377C17.0195 27.1738 16.687 27.5796 16.022 27.855C15.6499 28.0103 15.2427 28.0879 14.8003 28.0879C14.3579 28.0879 13.9507 28.0103 13.5786 27.855C12.9136 27.5796 12.5811 27.1738 12.5811 26.6377V22.7266C12.5811 22.1904 12.9136 21.7847 13.5786 21.5093C13.9507 21.354 14.3579 21.2764 14.8003 21.2764C15.2427 21.2764 15.6499 21.354 16.022 21.5093C16.687 21.7847 17.0195 22.1904 17.0195 22.7266V23.3857L16.1846 23.7812H16.1406V22.7266C16.1406 22.5273 15.9634 22.356 15.6089 22.2124C15.3628 22.1157 15.0933 22.0674 14.8003 22.0674C14.5073 22.0674 14.2378 22.1157 13.9917 22.2124C13.6372 22.353 13.46 22.5244 13.46 22.7266V26.6377C13.46 26.8369 13.6372 27.0083 13.9917 27.1519C14.2378 27.2485 14.5073 27.2969 14.8003 27.2969C15.0933 27.2969 15.3628 27.2485 15.6089 27.1519C15.9634 27.0112 16.1406 26.8398 16.1406 26.6377V25.9785L16.9756 25.583H17.0195ZM22.1172 25.9785L22.9521 25.583H22.9961V26.6377C22.9961 26.8398 23.1733 27.0112 23.5278 27.1519C23.7739 27.2485 24.0435 27.2969 24.3364 27.2969C24.6294 27.2969 24.8989 27.2485 25.145 27.1519C25.4995 27.0112 25.6768 26.8398 25.6768 26.6377V25.3589C25.6768 25.1538 25.4995 24.9824 25.145 24.8447C24.8989 24.748 24.6294 24.6997 24.3364 24.6997C23.9644 24.6997 23.6304 24.6426 23.3345 24.5283C22.7866 24.3115 22.5127 24.0098 22.5127 23.623V22.353C22.5127 21.9604 22.7866 21.6587 23.3345 21.4478C23.6304 21.3335 23.9644 21.2764 24.3364 21.2764C24.7085 21.2764 25.0425 21.3335 25.3384 21.4478C25.8862 21.6646 26.1602 21.9663 26.1602 22.353V22.9155L25.3252 23.311H25.2812V22.5068C25.2812 22.3604 25.189 22.2505 25.0044 22.1772C24.8228 22.104 24.6001 22.0674 24.3364 22.0674C24.0728 22.0674 23.8486 22.104 23.6641 22.1772C23.4824 22.2505 23.3916 22.3604 23.3916 22.5068V23.4692C23.3916 23.6157 23.4824 23.7256 23.6641 23.7988C23.8486 23.8721 24.0728 23.9087 24.3364 23.9087C24.7788 23.9087 25.186 23.9863 25.5581 24.1416C26.2231 24.417 26.5557 24.8228 26.5557 25.3589V26.6377C26.5557 27.1709 26.2231 27.5767 25.5581 27.855C25.186 28.0103 24.7788 28.0879 24.3364 28.0879C23.894 28.0879 23.4868 28.0103 23.1147 27.855C22.4497 27.5796 22.1172 27.1738 22.1172 26.6377V25.9785ZM31.5654 26.0532V27.0112C31.5654 27.3979 31.2915 27.6997 30.7437 27.9165C30.4478 28.0308 30.1138 28.0879 29.7417 28.0879C29.3696 28.0879 29.0356 28.0308 28.7397 27.9165C28.1919 27.6997 27.918 27.3979 27.918 27.0112V24.1548C27.918 23.7681 28.1919 23.4663 28.7397 23.2495C29.0356 23.1353 29.3696 23.0781 29.7417 23.0781C30.1138 23.0781 30.4478 23.1353 30.7437 23.2495C31.2915 23.4663 31.5654 23.7681 31.5654 24.1548V24.7173L30.7305 25.1128H30.6865V24.3086C30.6865 24.1621 30.5942 24.0522 30.4097 23.979C30.228 23.9058 30.0054 23.8691 29.7417 23.8691C29.478 23.8691 29.2539 23.9058 29.0693 23.979C28.8877 24.0522 28.7969 24.1621 28.7969 24.3086V26.8574C28.7969 27.0039 28.8877 27.1138 29.0693 27.187C29.2539 27.2603 29.478 27.2969 29.7417 27.2969C30.0054 27.2969 30.228 27.2603 30.4097 27.187C30.5942 27.1138 30.6865 27.0039 30.6865 26.8574V26.4487L31.5215 26.0532H31.5654ZM33.7627 26.8574C33.7627 27.0039 33.8535 27.1138 34.0352 27.187C34.2197 27.2603 34.4438 27.2969 34.7075 27.2969C34.9712 27.2969 35.1938 27.2603 35.3755 27.187C35.5601 27.1138 35.6523 27.0039 35.6523 26.8574V24.3086C35.6523 24.1621 35.5601 24.0522 35.3755 23.979C35.1938 23.9058 34.9712 23.8691 34.7075 23.8691C34.4438 23.8691 34.2197 23.9058 34.0352 23.979C33.8535 24.0522 33.7627 24.1621 33.7627 24.3086V26.8574ZM32.8838 27.0112V24.1548C32.8838 23.7681 33.1577 23.4663 33.7056 23.2495C34.0015 23.1353 34.3354 23.0781 34.7075 23.0781C35.0796 23.0781 35.4136 23.1353 35.7095 23.2495C36.2573 23.4663 36.5312 23.7681 36.5312 24.1548V27.0112C36.5312 27.3979 36.2573 27.6997 35.7095 27.9165C35.4136 28.0308 35.0796 28.0879 34.7075 28.0879C34.3354 28.0879 34.0015 28.0308 33.7056 27.9165C33.1577 27.6997 32.8838 27.3979 32.8838 27.0112ZM37.8496 23.3857L38.6846 22.9902H38.7285V26.8574C38.7285 27.0039 38.8193 27.1138 39.001 27.187C39.1855 27.2603 39.4097 27.2969 39.6733 27.2969C39.937 27.2969 40.1597 27.2603 40.3413 27.187C40.5259 27.1138 40.6182 27.0039 40.6182 26.8574V23.3857L41.4531 22.9902H41.4971V27.0112C41.4971 27.4038 41.2231 27.7056 40.6753 27.9165C40.3794 28.0308 40.0454 28.0879 39.6733 28.0879C39.3013 28.0879 38.9673 28.0308 38.6714 27.9165C38.1235 27.7056 37.8496 27.4038 37.8496 27.0112V23.3857ZM43.3955 28.1758V23.9658H42.2661V23.9219L42.6221 23.166H43.3955V21.584L44.2305 21.1885H44.2744V23.166H45.4038V23.21L45.0479 23.9658H44.2744V27.7803L43.4395 28.1758H43.3955ZM46.4585 22.1948C46.356 22.0894 46.3047 21.9634 46.3047 21.8169C46.3047 21.6675 46.356 21.54 46.4585 21.4346C46.561 21.3291 46.6855 21.2764 46.832 21.2764C46.9785 21.2764 47.103 21.3291 47.2056 21.4346C47.3081 21.54 47.3594 21.6675 47.3594 21.8169C47.3594 21.9634 47.3081 22.0894 47.2056 22.1948C47.103 22.3003 46.9785 22.353 46.832 22.353C46.6855 22.353 46.561 22.3003 46.4585 22.1948ZM46.3926 28.1758V23.3857L47.2275 22.9902H47.2715V27.7803L46.4365 28.1758H46.3926ZM48.8096 28.1758V24.1548C48.8096 23.7622 49.0835 23.4604 49.6313 23.2495C49.9272 23.1353 50.2612 23.0781 50.6333 23.0781C51.0054 23.0781 51.3394 23.1353 51.6353 23.2495C52.1831 23.4604 52.457 23.7622 52.457 24.1548V27.7803L51.6221 28.1758H51.5781V24.3086C51.5781 24.1621 51.4858 24.0522 51.3013 23.979C51.1196 23.9058 50.897 23.8691 50.6333 23.8691C50.3696 23.8691 50.1455 23.9058 49.9609 23.979C49.7793 24.0522 49.6885 24.1621 49.6885 24.3086V27.7803L48.8535 28.1758H48.8096ZM53.7754 27.0112V24.1548C53.7754 23.7622 54.0493 23.4604 54.5972 23.2495C54.8931 23.1353 55.2271 23.0781 55.5991 23.0781C55.9712 23.0781 56.3052 23.1353 56.6011 23.2495C57.1489 23.4663 57.4229 23.7681 57.4229 24.1548V28.813C57.4229 29.2056 57.1489 29.5073 56.6011 29.7183C56.3052 29.8325 55.9712 29.8896 55.5991 29.8896H54.2324V29.8457L54.584 29.0986H55.5991C55.8628 29.0986 56.0854 29.062 56.2671 28.9888C56.4517 28.9155 56.5439 28.8057 56.5439 28.6592V27.9385C56.2627 28.0381 55.9478 28.0879 55.5991 28.0879C55.2271 28.0879 54.8931 28.0308 54.5972 27.9165C54.0493 27.6997 53.7754 27.3979 53.7754 27.0112ZM54.6543 26.8574C54.6543 27.0039 54.7451 27.1138 54.9268 27.187C55.1113 27.2603 55.3354 27.2969 55.5991 27.2969C55.8657 27.2969 56.0898 27.2603 56.2715 27.187C56.4531 27.1138 56.5439 27.0039 56.5439 26.8574V24.3086C56.5439 24.1621 56.4517 24.0522 56.2671 23.979C56.0854 23.9058 55.8628 23.8691 55.5991 23.8691C55.3354 23.8691 55.1113 23.9058 54.9268 23.979C54.7451 24.0522 54.6543 24.1621 54.6543 24.3086V26.8574Z" fill="white"/>
<path d="M12.0308 38.0112V32.584L12.8657 32.1885H12.9097V34.2275C13.1909 34.1279 13.5059 34.0781 13.8545 34.0781C14.2266 34.0781 14.5605 34.1353 14.8564 34.2495C15.4043 34.4663 15.6782 34.7681 15.6782 35.1548V38.0112C15.6782 38.4038 15.4043 38.7056 14.8564 38.9165C14.5605 39.0308 14.2266 39.0879 13.8545 39.0879C13.4824 39.0879 13.1484 39.0308 12.8525 38.9165C12.3047 38.6997 12.0308 38.3979 12.0308 38.0112ZM12.9097 35.3086V37.8574C12.9097 38.0039 13.0005 38.1138 13.1821 38.187C13.3667 38.2603 13.5908 38.2969 13.8545 38.2969C14.1182 38.2969 14.3408 38.2603 14.5225 38.187C14.707 38.1138 14.7993 38.0039 14.7993 37.8574V35.3086C14.7993 35.1621 14.707 35.0522 14.5225 34.979C14.3408 34.9058 14.1182 34.8691 13.8545 34.8691C13.5908 34.8691 13.3667 34.9058 13.1821 34.979C13.0005 35.0522 12.9097 35.1621 12.9097 35.3086ZM16.9966 34.3857L17.8315 33.9902H17.8755V37.8574C17.8755 38.0039 17.9663 38.1138 18.1479 38.187C18.3325 38.2603 18.5566 38.2969 18.8203 38.2969C19.084 38.2969 19.3066 38.2603 19.4883 38.187C19.6729 38.1138 19.7651 38.0039 19.7651 37.8574V34.3857L20.6001 33.9902H20.644V39.813C20.644 40.2056 20.3701 40.5073 19.8223 40.7183C19.5264 40.8325 19.1924 40.8896 18.8203 40.8896H17.4536V40.8457L17.8052 40.0986H18.8203C19.084 40.0986 19.3066 40.062 19.4883 39.9888C19.6729 39.9155 19.7651 39.8057 19.7651 39.6592V38.9385C19.4839 39.0381 19.1689 39.0879 18.8203 39.0879C18.4482 39.0879 18.1143 39.0308 17.8184 38.9165C17.2705 38.7056 16.9966 38.4038 16.9966 38.0112V34.3857ZM28.2817 36.627V33.7881L26.3701 36.627H28.2817ZM28.2817 39.1758V37.4268H25.0605V37.3828L25.4165 36.627L28.2817 32.584L29.1167 32.1885H29.1606V36.627H29.8198V36.6709L29.4639 37.4268H29.1606V38.7803L28.3257 39.1758H28.2817ZM31.1382 37.3301L31.9731 36.9346H32.0171V37.6377C32.0171 37.8398 32.1943 38.0112 32.5488 38.1519C32.7949 38.2485 33.0645 38.2969 33.3574 38.2969C33.6504 38.2969 33.9199 38.2485 34.166 38.1519C34.5205 38.0112 34.6978 37.8398 34.6978 37.6377V36.3062C34.6597 36.3237 34.6201 36.3413 34.5791 36.3589C34.2158 36.5142 33.8086 36.5918 33.3574 36.5918C32.915 36.5918 32.5078 36.5142 32.1357 36.3589C31.4707 36.0806 31.1382 35.6748 31.1382 35.1416V33.7266C31.1382 33.1934 31.4707 32.7876 32.1357 32.5093C32.5078 32.354 32.915 32.2764 33.3574 32.2764C33.7998 32.2764 34.207 32.354 34.5791 32.5093C35.2441 32.7847 35.5767 33.1904 35.5767 33.7266V37.6377C35.5767 38.1709 35.2441 38.5767 34.5791 38.855C34.207 39.0103 33.7998 39.0879 33.3574 39.0879C32.915 39.0879 32.5078 39.0103 32.1357 38.855C31.4707 38.5796 31.1382 38.1738 31.1382 37.6377V37.3301ZM34.6978 33.7266C34.6978 33.5244 34.5205 33.353 34.166 33.2124C33.9199 33.1157 33.6504 33.0674 33.3574 33.0674C33.0645 33.0674 32.7949 33.1157 32.5488 33.2124C32.1943 33.353 32.0171 33.5244 32.0171 33.7266V35.1416C32.0171 35.3438 32.1943 35.5151 32.5488 35.6558C32.7949 35.7524 33.0645 35.8008 33.3574 35.8008C33.6504 35.8008 33.9199 35.7524 34.166 35.6558C34.5205 35.5151 34.6978 35.3438 34.6978 35.1416V33.7266ZM38.2134 37.6377C38.2134 37.8369 38.3906 38.0083 38.7451 38.1519C38.9912 38.2485 39.2607 38.2969 39.5537 38.2969C39.8467 38.2969 40.1162 38.2485 40.3623 38.1519C40.7168 38.0112 40.894 37.8398 40.894 37.6377V33.7266C40.894 33.5273 40.7168 33.356 40.3623 33.2124C40.1162 33.1157 39.8467 33.0674 39.5537 33.0674C39.2607 33.0674 38.9912 33.1157 38.7451 33.2124C38.3906 33.353 38.2134 33.5244 38.2134 33.7266V37.6377ZM37.3345 37.6377C37.3345 37.6377 37.3345 36.334 37.3345 33.7266C37.3345 33.1904 37.667 32.7847 38.332 32.5093C38.7041 32.354 39.1113 32.2764 39.5537 32.2764C39.9961 32.2764 40.4033 32.354 40.7754 32.5093C41.4404 32.7847 41.7729 33.1904 41.7729 33.7266V37.6377C41.7729 38.1738 41.4404 38.5796 40.7754 38.855C40.4033 39.0103 39.9961 39.0879 39.5537 39.0879C39.1113 39.0879 38.7041 39.0103 38.332 38.855C37.667 38.5796 37.3345 38.1738 37.3345 37.6377ZM43.5308 37.3301L44.3657 36.9346H44.4097V37.6377C44.4097 37.8398 44.5869 38.0112 44.9414 38.1519C45.1875 38.2485 45.457 38.2969 45.75 38.2969C46.043 38.2969 46.3125 38.2485 46.5586 38.1519C46.9131 38.0112 47.0903 37.8398 47.0903 37.6377V36.3062C47.0522 36.3237 47.0127 36.3413 46.9717 36.3589C46.6084 36.5142 46.2012 36.5918 45.75 36.5918C45.3076 36.5918 44.9004 36.5142 44.5283 36.3589C43.8633 36.0806 43.5308 35.6748 43.5308 35.1416V33.7266C43.5308 33.1934 43.8633 32.7876 44.5283 32.5093C44.9004 32.354 45.3076 32.2764 45.75 32.2764C46.1924 32.2764 46.5996 32.354 46.9717 32.5093C47.6367 32.7847 47.9692 33.1904 47.9692 33.7266V37.6377C47.9692 38.1709 47.6367 38.5767 46.9717 38.855C46.5996 39.0103 46.1924 39.0879 45.75 39.0879C45.3076 39.0879 44.9004 39.0103 44.5283 38.855C43.8633 38.5796 43.5308 38.1738 43.5308 37.6377V37.3301ZM47.0903 33.7266C47.0903 33.5244 46.9131 33.353 46.5586 33.2124C46.3125 33.1157 46.043 33.0674 45.75 33.0674C45.457 33.0674 45.1875 33.1157 44.9414 33.2124C44.5869 33.353 44.4097 33.5244 44.4097 33.7266V35.1416C44.4097 35.3438 44.5869 35.5151 44.9414 35.6558C45.1875 35.7524 45.457 35.8008 45.75 35.8008C46.043 35.8008 46.3125 35.7524 46.5586 35.6558C46.9131 35.5151 47.0903 35.3438 47.0903 35.1416V33.7266Z" fill="white"/>
</svg>
