<svg width="417" height="297" viewBox="0 0 417 297" fill="none" xmlns="http://www.w3.org/2000/svg">
<path d="M168.324 34.4966H145.139V82H134.619V34.4966H111.393V23.9762H168.324V34.4966ZM233.348 76.6994C233.348 77.4547 233.213 78.156 232.944 78.8034C232.674 79.4508 232.296 80.0173 231.811 80.5029C231.352 80.9615 230.799 81.3256 230.152 81.5954C229.504 81.8651 228.803 82 228.048 82H190.093C189.122 82 188.07 81.8921 186.937 81.6763C185.831 81.4335 184.725 81.0694 183.619 80.5838C182.54 80.0982 181.502 79.4778 180.504 78.7225C179.506 77.9402 178.615 77.0096 177.833 75.9306C177.078 74.8246 176.471 73.5567 176.012 72.1271C175.554 70.6704 175.324 69.0384 175.324 67.231V38.7452C175.324 37.7741 175.432 36.7355 175.648 35.6295C175.891 34.4966 176.255 33.3906 176.741 32.3116C177.226 31.2056 177.86 30.1536 178.642 29.1555C179.425 28.1574 180.355 27.2807 181.434 26.5254C182.54 25.7431 183.808 25.1227 185.238 24.6641C186.668 24.2055 188.286 23.9762 190.093 23.9762H232.863V34.4966H190.093C188.718 34.4966 187.666 34.8607 186.937 35.5891C186.209 36.3174 185.845 37.3964 185.845 38.8261V67.231C185.845 68.5798 186.209 69.6318 186.937 70.3872C187.693 71.1155 188.745 71.4797 190.093 71.4797H222.828V58.2888H194.828V47.6875H228.048C228.803 47.6875 229.504 47.8358 230.152 48.1326C230.799 48.4023 231.352 48.78 231.811 49.2655C232.296 49.7511 232.674 50.3176 232.944 50.965C233.213 51.5854 233.348 52.2598 233.348 52.9881V76.6994ZM301.245 82H290.725V67.7571H253.742V82H243.221V52.9881C243.221 48.753 243.95 44.8551 245.406 41.2943C246.863 37.7336 248.886 34.6719 251.476 32.1093C254.065 29.5466 257.127 27.5505 260.661 26.1208C264.194 24.6911 268.052 23.9762 272.233 23.9762H295.944C296.673 23.9762 297.361 24.1111 298.008 24.3809C298.655 24.6506 299.222 25.0283 299.707 25.5138C300.193 25.9994 300.571 26.5659 300.84 27.2133C301.11 27.8607 301.245 28.5485 301.245 29.2769V82ZM253.742 57.2367H290.725V34.4966H272.233C271.909 34.4966 271.222 34.5505 270.169 34.6584C269.144 34.7394 267.944 34.9686 266.568 35.3463C265.22 35.724 263.79 36.3039 262.279 37.0862C260.769 37.8685 259.379 38.9475 258.112 40.3232C256.844 41.699 255.792 43.4254 254.955 45.5025C254.146 47.5526 253.742 50.0478 253.742 52.9881V57.2367Z" fill="white"/>
<path d="M90.1554 235.104C89.4648 235.104 88.9642 235 88.6534 234.793C88.3426 234.586 88.1873 234.309 88.1873 233.964V200.299C88.1873 199.263 88.6534 198.745 89.5857 198.745H103.052C103.708 198.745 104.036 199.263 104.036 200.299V201.128C104.036 202.164 103.708 202.681 103.052 202.681H92.8486V214.49H102.171C102.827 214.49 103.155 215.008 103.155 216.044V216.873C103.155 217.908 102.827 218.426 102.171 218.426H92.8486V233.964C92.8486 234.309 92.6932 234.586 92.3825 234.793C92.0717 235 91.571 235.104 90.8805 235.104H90.1554ZM112.004 235.104C110.692 235.104 110.036 234.724 110.036 233.964V200.299C110.036 199.263 110.502 198.745 111.434 198.745H119.1C121.344 198.745 123.209 199.056 124.693 199.678C126.213 200.299 127.335 201.283 128.06 202.63C128.819 203.976 129.199 205.737 129.199 207.913C129.199 210.157 128.75 212.004 127.853 213.454C126.989 214.87 125.85 215.94 124.434 216.665V216.873C125.194 217.218 125.833 217.96 126.351 219.1C126.903 220.239 127.456 221.655 128.008 223.347L131.271 233.55C131.305 233.688 131.34 233.826 131.375 233.964C131.409 234.102 131.426 234.206 131.426 234.275C131.426 234.827 130.753 235.104 129.406 235.104H128.526C128.043 235.104 127.611 235.035 127.231 234.896C126.886 234.758 126.679 234.551 126.61 234.275L123.502 224.124C122.881 222.121 122.173 220.774 121.379 220.084C120.619 219.393 119.48 219.048 117.96 219.048H114.697V233.964C114.697 234.724 114.041 235.104 112.729 235.104H112.004ZM114.646 215.112H119.877C120.705 215.112 121.448 214.818 122.104 214.231C122.794 213.644 123.347 212.867 123.761 211.901C124.175 210.934 124.383 209.881 124.383 208.741C124.383 206.635 123.934 205.098 123.036 204.132C122.173 203.165 121.016 202.681 119.566 202.681H114.646V215.112ZM148.606 235.311C144.013 235.311 140.612 233.826 138.403 230.857C136.227 227.853 135.14 223.191 135.14 216.873C135.14 210.588 136.262 205.944 138.506 202.94C140.75 199.936 144.134 198.435 148.657 198.435C149.624 198.435 150.574 198.538 151.506 198.745C152.438 198.918 153.232 199.142 153.888 199.419C154.234 199.557 154.458 199.729 154.562 199.936C154.7 200.144 154.769 200.437 154.769 200.817C154.769 201.024 154.717 201.404 154.614 201.956C154.51 202.474 154.337 202.94 154.096 203.355C153.854 203.735 153.543 203.804 153.163 203.562C152.645 203.32 152.007 203.079 151.247 202.837C150.522 202.595 149.659 202.474 148.657 202.474C145.688 202.474 143.495 203.631 142.08 205.944C140.664 208.223 139.956 211.849 139.956 216.821C139.956 221.758 140.664 225.401 142.08 227.749C143.495 230.097 145.671 231.271 148.606 231.271C149.676 231.271 150.608 231.15 151.402 230.908C152.197 230.632 152.887 230.321 153.474 229.976C153.923 229.769 154.286 229.821 154.562 230.132C154.838 230.442 155.045 230.839 155.183 231.323C155.321 231.806 155.39 232.203 155.39 232.514C155.39 232.825 155.304 233.135 155.131 233.446C154.993 233.722 154.665 233.981 154.147 234.223C153.63 234.465 152.87 234.707 151.869 234.948C150.902 235.19 149.814 235.311 148.606 235.311ZM173.813 235.259C172.743 235.259 171.724 235.173 170.757 235C169.791 234.793 168.876 234.517 168.012 234.171C167.184 233.826 166.407 233.394 165.682 232.877C165.509 232.738 165.371 232.6 165.267 232.462C165.164 232.29 165.112 232.031 165.112 231.685C165.112 231.34 165.147 230.943 165.216 230.494C165.319 230.011 165.457 229.596 165.63 229.251C165.837 228.906 166.062 228.733 166.303 228.733C166.441 228.733 166.528 228.768 166.562 228.837C166.631 228.871 166.7 228.906 166.769 228.94C167.633 229.596 168.668 230.132 169.877 230.546C171.085 230.96 172.449 231.167 173.969 231.167C175.108 231.167 176.127 230.943 177.024 230.494C177.957 230.011 178.682 229.337 179.2 228.474C179.718 227.576 179.976 226.523 179.976 225.315C179.976 224.106 179.735 223.122 179.251 222.363C178.768 221.568 178.112 220.895 177.283 220.343C176.489 219.79 175.609 219.272 174.642 218.789C173.123 218.064 171.69 217.287 170.343 216.458C169.031 215.595 167.961 214.542 167.132 213.299C166.303 212.021 165.889 210.364 165.889 208.327C165.889 206.221 166.338 204.408 167.236 202.889C168.168 201.369 169.445 200.213 171.068 199.419C172.691 198.59 174.538 198.176 176.61 198.176C177.784 198.176 178.906 198.314 179.976 198.59C181.047 198.832 182.031 199.211 182.929 199.729C183.101 199.833 183.205 199.954 183.239 200.092C183.274 200.195 183.291 200.282 183.291 200.351C183.291 200.593 183.205 200.972 183.032 201.49C182.894 202.008 182.722 202.474 182.514 202.889C182.307 203.303 182.083 203.51 181.841 203.51C181.737 203.51 181.617 203.476 181.478 203.407C181.375 203.338 181.271 203.286 181.168 203.251C180.546 202.94 179.804 202.699 178.941 202.526C178.112 202.353 177.249 202.267 176.351 202.267C175.35 202.267 174.383 202.474 173.451 202.889C172.553 203.268 171.828 203.873 171.275 204.701C170.723 205.496 170.447 206.531 170.447 207.809C170.447 208.948 170.688 209.915 171.172 210.709C171.655 211.469 172.346 212.16 173.243 212.781C174.176 213.368 175.263 213.99 176.506 214.646C177.888 215.336 179.182 216.096 180.391 216.924C181.634 217.719 182.635 218.754 183.395 220.032C184.189 221.31 184.586 222.95 184.586 224.952C184.586 227.162 184.12 229.044 183.188 230.598C182.255 232.117 180.978 233.274 179.355 234.068C177.732 234.862 175.885 235.259 173.813 235.259ZM199.322 235.311C195.697 235.311 192.969 234.24 191.139 232.1C189.344 229.924 188.446 226.333 188.446 221.327C188.446 217.736 188.912 214.939 189.844 212.936C190.776 210.934 192.054 209.553 193.677 208.793C195.3 207.999 197.13 207.602 199.167 207.602C200.203 207.602 201.204 207.723 202.171 207.964C203.172 208.171 204.001 208.465 204.657 208.845C205.313 209.19 205.641 209.57 205.641 209.984C205.641 210.26 205.537 210.623 205.33 211.072C205.157 211.521 204.933 211.918 204.657 212.263C204.415 212.608 204.208 212.781 204.035 212.781C203.966 212.781 203.88 212.764 203.776 212.729C203.707 212.66 203.604 212.608 203.466 212.574C203.12 212.367 202.585 212.108 201.86 211.797C201.135 211.486 200.272 211.331 199.27 211.331C197.268 211.331 195.749 212.09 194.713 213.61C193.677 215.094 193.159 217.632 193.159 221.223C193.159 224.849 193.625 227.49 194.557 229.147C195.524 230.77 197.147 231.582 199.426 231.582C200.531 231.582 201.411 231.461 202.067 231.219C202.723 230.977 203.276 230.718 203.725 230.442C203.897 230.373 204.035 230.287 204.139 230.183C204.242 230.08 204.329 230.028 204.398 230.028C204.64 230.028 204.881 230.201 205.123 230.546C205.399 230.891 205.624 231.271 205.796 231.685C206.003 232.1 206.107 232.428 206.107 232.669C206.107 232.98 205.883 233.291 205.434 233.602C205.019 233.912 204.467 234.206 203.776 234.482C203.086 234.724 202.343 234.914 201.549 235.052C200.755 235.224 200.013 235.311 199.322 235.311ZM219.635 235.311C216.39 235.311 213.904 234.137 212.177 231.789C210.485 229.441 209.639 226.04 209.639 221.586C209.639 217.097 210.485 213.644 212.177 211.227C213.904 208.81 216.39 207.602 219.635 207.602C222.847 207.602 225.281 208.81 226.938 211.227C228.63 213.61 229.476 217.063 229.476 221.586C229.476 226.074 228.647 229.493 226.99 231.841C225.333 234.154 222.881 235.311 219.635 235.311ZM219.532 231.582C221.362 231.582 222.708 230.77 223.572 229.147C224.469 227.49 224.918 224.935 224.918 221.482C224.918 218.029 224.469 215.474 223.572 213.817C222.708 212.16 221.362 211.331 219.532 211.331C217.702 211.331 216.355 212.16 215.492 213.817C214.663 215.44 214.249 217.995 214.249 221.482C214.249 224.935 214.663 227.49 215.492 229.147C216.355 230.77 217.702 231.582 219.532 231.582ZM242.142 235.363C240.002 235.363 238.344 234.707 237.17 233.394C235.996 232.048 235.409 230.201 235.409 227.853V209C235.409 208.655 235.565 208.379 235.876 208.171C236.186 207.964 236.687 207.861 237.378 207.861H237.895C238.586 207.861 239.087 207.964 239.397 208.171C239.708 208.379 239.864 208.655 239.864 209V227.179C239.864 228.595 240.174 229.683 240.796 230.442C241.417 231.202 242.332 231.582 243.541 231.582C244.542 231.582 245.457 231.254 246.286 230.598C247.115 229.907 247.805 229.027 248.358 227.956V209C248.358 208.241 249.014 207.861 250.326 207.861H250.844C252.156 207.861 252.812 208.241 252.812 209V227.283C252.812 228.699 252.846 229.873 252.915 230.805C253.019 231.737 253.105 232.462 253.174 232.98C253.278 233.463 253.33 233.757 253.33 233.861C253.33 234.102 253.192 234.292 252.915 234.43C252.674 234.568 252.38 234.689 252.035 234.793C251.69 234.862 251.344 234.914 250.999 234.948C250.688 234.983 250.464 235 250.326 235C249.67 235 249.255 234.637 249.083 233.912C248.945 233.153 248.806 232.341 248.668 231.478C247.909 232.687 246.959 233.636 245.82 234.327C244.68 235.017 243.455 235.363 242.142 235.363ZM267.387 235.311C266.593 235.311 265.747 235.155 264.849 234.845C263.952 234.534 263.175 233.93 262.519 233.032C261.897 232.134 261.586 230.805 261.586 229.044V211.642H259.877C259.187 211.642 258.841 211.124 258.841 210.088V209.466C258.841 208.43 259.187 207.913 259.877 207.913H261.586L262.208 202.474C262.277 201.715 262.829 201.335 263.865 201.335H264.383C265.419 201.335 265.937 201.715 265.937 202.474V207.913H269.355C270.046 207.913 270.391 208.43 270.391 209.466V210.088C270.391 211.124 270.046 211.642 269.355 211.642H265.937V228.319C265.937 229.665 266.127 230.546 266.507 230.96C266.921 231.375 267.404 231.582 267.957 231.582C268.475 231.582 268.855 231.547 269.096 231.478C269.373 231.375 269.58 231.323 269.718 231.323C269.96 231.323 270.149 231.495 270.288 231.841C270.46 232.186 270.581 232.566 270.65 232.98C270.754 233.36 270.806 233.636 270.806 233.809C270.806 234.258 270.598 234.586 270.184 234.793C269.804 235 269.338 235.138 268.786 235.207C268.233 235.276 267.767 235.311 267.387 235.311ZM278.774 235.104C277.393 235.104 276.702 234.724 276.702 233.964V208.948C276.702 208.189 277.393 207.809 278.774 207.809H278.981C280.362 207.809 281.053 208.189 281.053 208.948V233.964C281.053 234.724 280.362 235.104 278.981 235.104H278.774ZM278.877 203.562C278.083 203.562 277.496 203.476 277.117 203.303C276.771 203.096 276.599 202.802 276.599 202.423V199.781C276.599 199.436 276.771 199.16 277.117 198.952C277.496 198.745 278.118 198.642 278.981 198.642C279.775 198.642 280.345 198.745 280.69 198.952C281.07 199.16 281.26 199.436 281.26 199.781V202.423C281.26 202.768 281.07 203.044 280.69 203.251C280.345 203.458 279.741 203.562 278.877 203.562ZM291.406 235.104C290.129 235.104 289.49 234.724 289.49 233.964V215.681C289.49 214.266 289.438 213.092 289.335 212.16C289.266 211.227 289.179 210.519 289.076 210.036C289.007 209.553 288.972 209.259 288.972 209.156C288.972 208.914 289.093 208.724 289.335 208.586C289.611 208.413 289.922 208.292 290.267 208.223C290.612 208.12 290.94 208.051 291.251 208.016C291.596 207.982 291.838 207.964 291.976 207.964C292.632 207.964 293.029 208.344 293.167 209.104C293.34 209.863 293.495 210.658 293.633 211.486C294.393 210.278 295.343 209.328 296.482 208.638C297.622 207.947 298.847 207.602 300.159 207.602C302.3 207.602 303.957 208.327 305.131 209.777C306.305 211.193 306.892 213.161 306.892 215.681V233.964C306.892 234.309 306.737 234.586 306.426 234.793C306.115 235 305.615 235.104 304.924 235.104H304.406C303.716 235.104 303.198 235 302.853 234.793C302.542 234.586 302.386 234.309 302.386 233.964V216.096C302.386 214.611 302.076 213.454 301.454 212.626C300.867 211.797 299.952 211.383 298.709 211.383C297.742 211.383 296.827 211.728 295.964 212.418C295.135 213.075 294.462 213.938 293.944 215.008V233.964C293.944 234.724 293.288 235.104 291.976 235.104H291.406ZM321.83 245.98C320.104 245.98 318.55 245.773 317.169 245.358C315.788 244.944 314.7 244.271 313.906 243.339C313.112 242.406 312.715 241.146 312.715 239.558C312.715 238.038 313.078 236.726 313.803 235.622C314.528 234.551 315.512 233.688 316.755 233.032V232.928C316.237 232.514 315.823 231.979 315.512 231.323C315.236 230.667 315.097 229.942 315.097 229.147C315.097 228.112 315.305 227.197 315.719 226.402C316.133 225.574 316.738 224.866 317.532 224.279C316.289 223.554 315.339 222.518 314.683 221.171C314.027 219.825 313.699 218.271 313.699 216.51C313.699 213.886 314.407 211.745 315.823 210.088C317.273 208.43 319.413 207.602 322.245 207.602C323.073 207.602 323.885 207.705 324.679 207.913H332.448C333.138 207.913 333.484 208.413 333.484 209.415V210.036C333.484 211.003 333.138 211.486 332.448 211.486C331.792 211.486 331.239 211.486 330.791 211.486C330.376 211.486 329.979 211.452 329.599 211.383L329.496 211.486C330.29 212.902 330.687 214.559 330.687 216.458C330.687 219.013 329.996 221.12 328.615 222.777C327.234 224.4 325.249 225.263 322.659 225.367C321.485 225.436 320.501 225.746 319.707 226.299C318.947 226.817 318.568 227.628 318.568 228.733C318.568 229.665 318.878 230.321 319.5 230.701C320.156 231.081 320.967 231.357 321.934 231.53C322.935 231.668 323.954 231.823 324.99 231.996C326.267 232.203 327.424 232.531 328.46 232.98C329.496 233.394 330.307 234.033 330.894 234.896C331.516 235.725 331.826 236.865 331.826 238.315C331.826 240.766 330.98 242.648 329.289 243.96C327.631 245.307 325.145 245.98 321.83 245.98ZM322.193 242.613C324.127 242.613 325.56 242.285 326.492 241.629C327.424 241.008 327.89 240.058 327.89 238.781C327.89 237.78 327.579 237.037 326.958 236.554C326.371 236.07 325.611 235.742 324.679 235.57C323.781 235.397 322.832 235.259 321.83 235.155C320.829 235.052 319.914 234.862 319.085 234.586C318.326 234.965 317.687 235.483 317.169 236.139C316.651 236.83 316.392 237.693 316.392 238.729C316.392 239.834 316.703 240.663 317.324 241.215C317.946 241.768 318.688 242.13 319.552 242.303C320.449 242.51 321.33 242.613 322.193 242.613ZM322.193 222.052C323.056 222.052 323.833 221.914 324.524 221.638C325.249 221.327 325.818 220.792 326.233 220.032C326.682 219.238 326.906 218.081 326.906 216.562C326.906 215.043 326.682 213.886 326.233 213.092C325.818 212.263 325.249 211.711 324.524 211.434C323.833 211.124 323.056 210.968 322.193 210.968C321.33 210.968 320.536 211.124 319.811 211.434C319.12 211.711 318.568 212.263 318.153 213.092C317.739 213.886 317.532 215.043 317.532 216.562C317.532 218.081 317.739 219.238 318.153 220.032C318.568 220.792 319.12 221.327 319.811 221.638C320.536 221.914 321.33 222.052 322.193 222.052Z" fill="white"/>
<path d="M37.4333 137.104C36.7427 137.104 36.242 137 35.9313 136.793C35.6205 136.586 35.4651 136.309 35.4651 135.964V104.681H28.007C27.351 104.681 27.023 104.164 27.023 103.128V102.299C27.023 101.263 27.351 100.745 28.007 100.745H47.481C48.1716 100.745 48.5169 101.263 48.5169 102.299V103.128C48.5169 104.164 48.1716 104.681 47.481 104.681H40.1265V135.964C40.1265 136.309 39.9711 136.586 39.6603 136.793C39.3496 137 38.8489 137.104 38.1584 137.104H37.4333ZM55.6695 137.104C54.9789 137.104 54.4783 137 54.1675 136.793C53.8567 136.586 53.7014 136.309 53.7014 135.964V99.1915C53.7014 98.8462 53.8567 98.57 54.1675 98.3628C54.4783 98.1556 54.9789 98.0521 55.6695 98.0521H56.2392C57.5167 98.0521 58.1555 98.4319 58.1555 99.1915V113.072C58.8461 112.071 59.7266 111.242 60.7969 110.586C61.9018 109.93 63.1276 109.602 64.4742 109.602C65.6136 109.602 66.684 109.878 67.6853 110.43C68.7212 110.948 69.5499 111.812 70.1714 113.02C70.7929 114.194 71.1036 115.748 71.1036 117.681V135.964C71.1036 136.309 70.9483 136.586 70.6375 136.793C70.3268 137 69.8261 137.104 69.1355 137.104H68.6176C67.927 137.104 67.4264 137 67.1156 136.793C66.8049 136.586 66.6495 136.309 66.6495 135.964V118.096C66.6495 116.611 66.3387 115.454 65.7172 114.626C65.1302 113.797 64.2152 113.383 62.9722 113.383C62.0745 113.383 61.2803 113.607 60.5898 114.056C59.9337 114.47 59.3813 114.971 58.9324 115.558C58.5181 116.11 58.2591 116.594 58.1555 117.008V135.964C58.1555 136.724 57.4995 137.104 56.1874 137.104H55.6695ZM87.9026 137.311C84.2426 137.311 81.5149 136.189 79.7194 133.944C77.9585 131.7 77.078 128.264 77.078 123.638C77.078 120.599 77.4578 118.044 78.2174 115.972C78.977 113.866 80.1165 112.278 81.6357 111.207C83.155 110.137 85.0368 109.602 87.2811 109.602C90.2851 109.602 92.5467 110.758 94.0659 113.072C95.5852 115.351 96.3448 118.7 96.3448 123.12C96.3448 123.327 96.2412 123.603 96.034 123.948C95.8614 124.294 95.637 124.604 95.3607 124.881C95.0845 125.122 94.8428 125.243 94.6356 125.243H81.7393C81.912 128.109 82.4471 130.215 83.3449 131.562C84.2771 132.908 85.7791 133.582 87.8508 133.582C89.1629 133.582 90.2333 133.409 91.062 133.064C91.8906 132.684 92.5294 132.321 92.9783 131.976C93.4271 131.596 93.7379 131.406 93.9105 131.406C94.1522 131.406 94.4112 131.579 94.6874 131.924C94.9637 132.27 95.2054 132.649 95.4125 133.064C95.6197 133.478 95.7233 133.789 95.7233 133.996C95.7233 134.307 95.5161 134.652 95.1018 135.032C94.722 135.412 94.1695 135.774 93.4444 136.12C92.7538 136.465 91.9252 136.758 90.9584 137C90.0261 137.207 89.0075 137.311 87.9026 137.311ZM81.7393 121.514H91.7353C91.7353 118.786 91.3382 116.749 90.544 115.403C89.7844 114.021 88.645 113.331 87.1257 113.331C85.4338 113.331 84.139 114.021 83.2413 115.403C82.3781 116.749 81.8774 118.786 81.7393 121.514ZM120.885 137.311C116.604 137.311 113.341 135.826 111.096 132.857C108.887 129.887 107.782 125.329 107.782 119.183C107.782 112.727 108.938 107.996 111.252 104.992C113.565 101.954 116.932 100.435 121.351 100.435C122.663 100.435 123.958 100.607 125.236 100.952C126.513 101.298 127.566 101.712 128.395 102.195C129.224 102.679 129.638 103.162 129.638 103.646C129.638 103.922 129.534 104.302 129.327 104.785C129.12 105.268 128.861 105.7 128.55 106.08C128.274 106.46 128.015 106.65 127.774 106.65C127.601 106.65 127.256 106.477 126.738 106.132C126.254 105.786 125.564 105.441 124.666 105.096C123.803 104.716 122.715 104.526 121.403 104.526C118.157 104.526 115.879 105.786 114.566 108.307C113.254 110.793 112.598 114.263 112.598 118.717C112.598 121.376 112.857 123.81 113.375 126.02C113.893 128.23 114.756 130.008 115.965 131.355C117.208 132.701 118.9 133.375 121.04 133.375C122.249 133.375 123.319 133.288 124.252 133.116C125.184 132.908 125.926 132.649 126.479 132.339L125.65 134.462V121.151H121.248C120.557 121.151 120.212 120.634 120.212 119.598V118.769C120.212 117.733 120.557 117.215 121.248 117.215H128.913C129.845 117.215 130.311 117.733 130.311 118.769V133.582C130.311 134.307 130.018 134.911 129.431 135.394C128.844 135.878 128.067 136.258 127.1 136.534C126.168 136.81 125.149 137 124.044 137.104C122.974 137.242 121.921 137.311 120.885 137.311ZM140.191 137.104C138.81 137.104 138.119 136.724 138.119 135.964V117.681C138.119 116.266 138.068 115.092 137.964 114.16C137.861 113.227 137.757 112.519 137.653 112.036C137.55 111.553 137.498 111.259 137.498 111.156C137.498 110.914 137.602 110.724 137.809 110.586C138.05 110.413 138.327 110.292 138.637 110.223C138.948 110.12 139.259 110.051 139.57 110.016C139.88 109.982 140.122 109.964 140.295 109.964C140.709 109.964 141.02 110.171 141.227 110.586C141.469 110.966 141.641 111.432 141.745 111.984C141.883 112.537 142.004 113.037 142.107 113.486C142.902 112.243 143.748 111.294 144.645 110.638C145.578 109.947 146.544 109.602 147.546 109.602C148.133 109.602 148.633 109.688 149.048 109.861C149.462 110.033 149.756 110.275 149.928 110.586C150.135 110.897 150.239 111.242 150.239 111.622C150.239 111.967 150.187 112.364 150.084 112.813C150.014 113.227 149.894 113.607 149.721 113.952C149.583 114.263 149.41 114.418 149.203 114.418C148.892 114.418 148.582 114.332 148.271 114.16C147.96 113.952 147.425 113.849 146.665 113.849C145.975 113.849 145.336 114.056 144.749 114.47C144.162 114.885 143.661 115.351 143.247 115.869C142.833 116.352 142.574 116.732 142.47 117.008V135.964C142.47 136.724 141.779 137.104 140.398 137.104H140.191ZM163.922 137.311C160.262 137.311 157.534 136.189 155.739 133.944C153.978 131.7 153.098 128.264 153.098 123.638C153.098 120.599 153.477 118.044 154.237 115.972C154.997 113.866 156.136 112.278 157.655 111.207C159.175 110.137 161.056 109.602 163.301 109.602C166.305 109.602 168.566 110.758 170.086 113.072C171.605 115.351 172.364 118.7 172.364 123.12C172.364 123.327 172.261 123.603 172.054 123.948C171.881 124.294 171.657 124.604 171.38 124.881C171.104 125.122 170.862 125.243 170.655 125.243H157.759C157.932 128.109 158.467 130.215 159.364 131.562C160.297 132.908 161.799 133.582 163.87 133.582C165.183 133.582 166.253 133.409 167.082 133.064C167.91 132.684 168.549 132.321 168.998 131.976C169.447 131.596 169.758 131.406 169.93 131.406C170.172 131.406 170.431 131.579 170.707 131.924C170.983 132.27 171.225 132.649 171.432 133.064C171.639 133.478 171.743 133.789 171.743 133.996C171.743 134.307 171.536 134.652 171.121 135.032C170.742 135.412 170.189 135.774 169.464 136.12C168.773 136.465 167.945 136.758 166.978 137C166.046 137.207 165.027 137.311 163.922 137.311ZM157.759 121.514H167.755C167.755 118.786 167.358 116.749 166.564 115.403C165.804 114.021 164.665 113.331 163.145 113.331C161.453 113.331 160.159 114.021 159.261 115.403C158.398 116.749 157.897 118.786 157.759 121.514ZM187.441 137.311C183.781 137.311 181.054 136.189 179.258 133.944C177.497 131.7 176.617 128.264 176.617 123.638C176.617 120.599 176.996 118.044 177.756 115.972C178.516 113.866 179.655 112.278 181.174 111.207C182.694 110.137 184.575 109.602 186.82 109.602C189.824 109.602 192.085 110.758 193.605 113.072C195.124 115.351 195.883 118.7 195.883 123.12C195.883 123.327 195.78 123.603 195.573 123.948C195.4 124.294 195.176 124.604 194.899 124.881C194.623 125.122 194.381 125.243 194.174 125.243H181.278C181.451 128.109 181.986 130.215 182.884 131.562C183.816 132.908 185.318 133.582 187.39 133.582C188.702 133.582 189.772 133.409 190.601 133.064C191.429 132.684 192.068 132.321 192.517 131.976C192.966 131.596 193.277 131.406 193.449 131.406C193.691 131.406 193.95 131.579 194.226 131.924C194.502 132.27 194.744 132.649 194.951 133.064C195.158 133.478 195.262 133.789 195.262 133.996C195.262 134.307 195.055 134.652 194.64 135.032C194.261 135.412 193.708 135.774 192.983 136.12C192.293 136.465 191.464 136.758 190.497 137C189.565 137.207 188.546 137.311 187.441 137.311ZM181.278 121.514H191.274C191.274 118.786 190.877 116.749 190.083 115.403C189.323 114.021 188.184 113.331 186.664 113.331C184.973 113.331 183.678 114.021 182.78 115.403C181.917 116.749 181.416 118.786 181.278 121.514ZM203.658 137.104C202.38 137.104 201.741 136.724 201.741 135.964V117.681C201.741 116.266 201.689 115.092 201.586 114.16C201.517 113.227 201.431 112.519 201.327 112.036C201.258 111.553 201.223 111.259 201.223 111.156C201.223 110.914 201.344 110.724 201.586 110.586C201.862 110.413 202.173 110.292 202.518 110.223C202.863 110.12 203.191 110.051 203.502 110.016C203.848 109.982 204.089 109.964 204.227 109.964C204.883 109.964 205.28 110.344 205.419 111.104C205.591 111.863 205.747 112.658 205.885 113.486C206.644 112.278 207.594 111.328 208.733 110.638C209.873 109.947 211.098 109.602 212.411 109.602C214.551 109.602 216.209 110.327 217.383 111.777C218.557 113.193 219.144 115.161 219.144 117.681V135.964C219.144 136.309 218.988 136.586 218.677 136.793C218.367 137 217.866 137.104 217.175 137.104H216.658C215.967 137.104 215.449 137 215.104 136.793C214.793 136.586 214.638 136.309 214.638 135.964V118.096C214.638 116.611 214.327 115.454 213.705 114.626C213.118 113.797 212.203 113.383 210.96 113.383C209.994 113.383 209.079 113.728 208.215 114.418C207.387 115.075 206.713 115.938 206.195 117.008V135.964C206.195 136.724 205.539 137.104 204.227 137.104H203.658ZM232.358 137.104C231.08 137.104 230.442 136.81 230.442 136.223C230.442 136.12 230.442 136.016 230.442 135.912C230.476 135.809 230.511 135.688 230.545 135.55L239.92 101.626C240.127 100.97 240.817 100.642 241.991 100.642H243.649C244.892 100.642 245.582 100.97 245.72 101.626L255.095 135.55C255.129 135.688 255.164 135.809 255.198 135.912C255.233 136.016 255.25 136.12 255.25 136.223C255.25 136.465 255.095 136.672 254.784 136.845C254.473 137.017 253.99 137.104 253.334 137.104H252.453C251.97 137.104 251.556 137.052 251.21 136.948C250.865 136.81 250.658 136.586 250.589 136.275L248.362 127.781H237.226L235.051 136.275C234.982 136.586 234.775 136.81 234.43 136.948C234.084 137.052 233.67 137.104 233.187 137.104H232.358ZM238.418 123.845H247.222L243.545 109.654C243.407 109.17 243.286 108.652 243.183 108.1C243.113 107.513 243.044 106.978 242.975 106.494H242.716C242.613 106.978 242.509 107.513 242.406 108.1C242.337 108.652 242.233 109.17 242.095 109.654L238.418 123.845ZM265.344 137.311C264.653 137.311 263.876 137.155 263.013 136.845C262.15 136.534 261.407 135.93 260.786 135.032C260.164 134.134 259.854 132.805 259.854 131.044V99.1915C259.854 98.4319 260.544 98.0521 261.925 98.0521H262.133C263.514 98.0521 264.204 98.4319 264.204 99.1915V130.63C264.204 131.838 264.394 132.632 264.774 133.012C265.154 133.392 265.603 133.582 266.121 133.582C266.604 133.582 266.949 133.547 267.156 133.478C267.398 133.375 267.605 133.323 267.778 133.323C268.02 133.323 268.21 133.495 268.348 133.841C268.52 134.186 268.641 134.566 268.71 134.98C268.814 135.36 268.866 135.619 268.866 135.757C268.866 136.137 268.658 136.448 268.244 136.689C267.83 136.896 267.346 137.052 266.794 137.155C266.241 137.259 265.758 137.311 265.344 137.311ZM279.303 137.311C278.613 137.311 277.836 137.155 276.973 136.845C276.109 136.534 275.367 135.93 274.746 135.032C274.124 134.134 273.813 132.805 273.813 131.044V99.1915C273.813 98.4319 274.504 98.0521 275.885 98.0521H276.092C277.473 98.0521 278.164 98.4319 278.164 99.1915V130.63C278.164 131.838 278.354 132.632 278.734 133.012C279.113 133.392 279.562 133.582 280.08 133.582C280.564 133.582 280.909 133.547 281.116 133.478C281.358 133.375 281.565 133.323 281.738 133.323C281.979 133.323 282.169 133.495 282.307 133.841C282.48 134.186 282.601 134.566 282.67 134.98C282.773 135.36 282.825 135.619 282.825 135.757C282.825 136.137 282.618 136.448 282.204 136.689C281.789 136.896 281.306 137.052 280.754 137.155C280.201 137.259 279.718 137.311 279.303 137.311ZM290.311 137.104C288.93 137.104 288.239 136.724 288.239 135.964V110.948C288.239 110.189 288.93 109.809 290.311 109.809H290.518C291.899 109.809 292.59 110.189 292.59 110.948V135.964C292.59 136.724 291.899 137.104 290.518 137.104H290.311ZM290.414 105.562C289.62 105.562 289.033 105.476 288.654 105.303C288.308 105.096 288.136 104.802 288.136 104.423V101.781C288.136 101.436 288.308 101.16 288.654 100.952C289.033 100.745 289.655 100.642 290.518 100.642C291.312 100.642 291.882 100.745 292.227 100.952C292.607 101.16 292.797 101.436 292.797 101.781V104.423C292.797 104.768 292.607 105.044 292.227 105.251C291.882 105.458 291.278 105.562 290.414 105.562ZM307.19 137.311C304.911 137.311 303.081 136.637 301.7 135.291C300.319 133.91 299.629 131.907 299.629 129.283C299.629 127.177 300.043 125.502 300.872 124.259C301.735 123.016 302.857 122.084 304.238 121.462C305.619 120.806 307.121 120.375 308.744 120.167C310.367 119.96 311.973 119.839 313.561 119.805V117.371C313.561 116.3 313.233 115.368 312.577 114.574C311.921 113.745 310.747 113.331 309.055 113.331C307.777 113.331 306.672 113.486 305.74 113.797C304.808 114.108 304.066 114.418 303.513 114.729C302.961 115.04 302.581 115.195 302.374 115.195C302.132 115.195 301.873 115.023 301.597 114.677C301.321 114.332 301.079 113.97 300.872 113.59C300.665 113.175 300.561 112.865 300.561 112.658C300.561 112.209 300.958 111.76 301.752 111.311C302.581 110.828 303.634 110.43 304.911 110.12C306.224 109.774 307.622 109.602 309.107 109.602C310.971 109.602 312.56 109.913 313.872 110.534C315.184 111.156 316.185 112.053 316.876 113.227C317.566 114.367 317.911 115.765 317.911 117.422V129.335C317.911 130.75 317.963 131.924 318.067 132.857C318.17 133.789 318.274 134.514 318.378 135.032C318.481 135.515 318.533 135.792 318.533 135.861C318.533 136.102 318.412 136.309 318.17 136.482C317.963 136.62 317.704 136.741 317.393 136.845C317.083 136.914 316.772 136.965 316.461 137C316.15 137.035 315.909 137.052 315.736 137.052C315.184 137.052 314.787 136.724 314.545 136.068C314.303 135.377 314.096 134.687 313.923 133.996C313.06 135.032 312.076 135.843 310.971 136.43C309.901 137.017 308.641 137.311 307.19 137.311ZM308.071 133.219C309.21 133.219 310.229 132.96 311.127 132.442C312.059 131.924 312.87 131.199 313.561 130.267V123.586C312.456 123.62 311.351 123.689 310.246 123.793C309.176 123.897 308.174 124.121 307.242 124.466C306.31 124.812 305.568 125.364 305.015 126.124C304.463 126.883 304.186 127.919 304.186 129.231C304.186 130.543 304.497 131.545 305.119 132.235C305.775 132.891 306.759 133.219 308.071 133.219ZM327.879 137.104C326.601 137.104 325.962 136.724 325.962 135.964V117.681C325.962 116.266 325.911 115.092 325.807 114.16C325.738 113.227 325.652 112.519 325.548 112.036C325.479 111.553 325.444 111.259 325.444 111.156C325.444 110.914 325.565 110.724 325.807 110.586C326.083 110.413 326.394 110.292 326.739 110.223C327.084 110.12 327.412 110.051 327.723 110.016C328.069 109.982 328.31 109.964 328.448 109.964C329.104 109.964 329.501 110.344 329.64 111.104C329.812 111.863 329.968 112.658 330.106 113.486C330.865 112.278 331.815 111.328 332.954 110.638C334.094 109.947 335.319 109.602 336.632 109.602C338.772 109.602 340.43 110.327 341.604 111.777C342.778 113.193 343.365 115.161 343.365 117.681V135.964C343.365 136.309 343.209 136.586 342.898 136.793C342.588 137 342.087 137.104 341.396 137.104H340.879C340.188 137.104 339.67 137 339.325 136.793C339.014 136.586 338.859 136.309 338.859 135.964V118.096C338.859 116.611 338.548 115.454 337.926 114.626C337.339 113.797 336.424 113.383 335.181 113.383C334.215 113.383 333.3 113.728 332.436 114.418C331.608 115.075 330.934 115.938 330.416 117.008V135.964C330.416 136.724 329.76 137.104 328.448 137.104H327.879ZM360.167 137.311C356.542 137.311 353.814 136.24 351.984 134.1C350.189 131.924 349.291 128.333 349.291 123.327C349.291 119.736 349.757 116.939 350.689 114.936C351.621 112.934 352.899 111.553 354.522 110.793C356.145 109.999 357.975 109.602 360.012 109.602C361.048 109.602 362.049 109.723 363.016 109.964C364.017 110.171 364.846 110.465 365.502 110.845C366.158 111.19 366.486 111.57 366.486 111.984C366.486 112.26 366.382 112.623 366.175 113.072C366.002 113.521 365.778 113.918 365.502 114.263C365.26 114.608 365.053 114.781 364.88 114.781C364.811 114.781 364.725 114.764 364.621 114.729C364.552 114.66 364.449 114.608 364.311 114.574C363.965 114.367 363.43 114.108 362.705 113.797C361.98 113.486 361.117 113.331 360.115 113.331C358.113 113.331 356.594 114.09 355.558 115.61C354.522 117.094 354.004 119.632 354.004 123.223C354.004 126.849 354.47 129.49 355.402 131.147C356.369 132.77 357.992 133.582 360.271 133.582C361.376 133.582 362.256 133.461 362.912 133.219C363.568 132.977 364.121 132.718 364.57 132.442C364.742 132.373 364.88 132.287 364.984 132.183C365.087 132.08 365.174 132.028 365.243 132.028C365.485 132.028 365.726 132.201 365.968 132.546C366.244 132.891 366.469 133.271 366.641 133.685C366.848 134.1 366.952 134.428 366.952 134.669C366.952 134.98 366.728 135.291 366.279 135.602C365.864 135.912 365.312 136.206 364.621 136.482C363.931 136.724 363.188 136.914 362.394 137.052C361.6 137.224 360.858 137.311 360.167 137.311ZM380.753 137.311C377.093 137.311 374.365 136.189 372.569 133.944C370.809 131.7 369.928 128.264 369.928 123.638C369.928 120.599 370.308 118.044 371.067 115.972C371.827 113.866 372.967 112.278 374.486 111.207C376.005 110.137 377.887 109.602 380.131 109.602C383.135 109.602 385.397 110.758 386.916 113.072C388.435 115.351 389.195 118.7 389.195 123.12C389.195 123.327 389.091 123.603 388.884 123.948C388.711 124.294 388.487 124.604 388.211 124.881C387.935 125.122 387.693 125.243 387.486 125.243H374.589C374.762 128.109 375.297 130.215 376.195 131.562C377.127 132.908 378.629 133.582 380.701 133.582C382.013 133.582 383.083 133.409 383.912 133.064C384.741 132.684 385.379 132.321 385.828 131.976C386.277 131.596 386.588 131.406 386.761 131.406C387.002 131.406 387.261 131.579 387.537 131.924C387.814 132.27 388.055 132.649 388.263 133.064C388.47 133.478 388.573 133.789 388.573 133.996C388.573 134.307 388.366 134.652 387.952 135.032C387.572 135.412 387.02 135.774 386.294 136.12C385.604 136.465 384.775 136.758 383.808 137C382.876 137.207 381.858 137.311 380.753 137.311ZM374.589 121.514H384.585C384.585 118.786 384.188 116.749 383.394 115.403C382.634 114.021 381.495 113.331 379.976 113.331C378.284 113.331 376.989 114.021 376.091 115.403C375.228 116.749 374.727 118.786 374.589 121.514Z" fill="white"/>
<path d="M142.186 247.386C143.718 247.386 145.106 247.613 146.351 248.069C147.595 248.524 148.65 249.146 149.514 249.935C150.394 250.724 151.07 251.65 151.54 252.712C152.01 253.759 152.246 254.874 152.246 256.058V269.896C152.246 271.079 152.01 272.202 151.54 273.264C151.07 274.311 150.394 275.229 149.514 276.018C148.65 276.807 147.595 277.429 146.351 277.885C145.106 278.34 143.718 278.568 142.186 278.568H135.175C133.643 278.568 132.254 278.34 131.01 277.885C129.766 277.429 128.704 276.807 127.824 276.018C126.959 275.229 126.291 274.311 125.821 273.264C125.35 272.202 125.115 271.079 125.115 269.896V256.058C125.115 254.874 125.35 253.759 125.821 252.712C126.291 251.65 126.959 250.724 127.824 249.935C128.704 249.146 129.766 248.524 131.01 248.069C132.254 247.613 133.643 247.386 135.175 247.386H142.186ZM145.85 261.042L145.418 259.358L143.597 258.561L145.418 257.878L145.85 256.149V253.121L145.531 251.21L144.097 249.753L141.753 249.434H132.194V268.257H141.753L144.097 267.984L145.531 266.55L145.85 264.638V261.042ZM143.119 265.617L141.617 265.844H134.629V259.836H141.662L143.21 260.018L143.437 261.361V264.388L143.119 265.617ZM143.119 257.173L141.617 257.446H134.629V251.847H141.617L143.21 252.097L143.119 253.44L143.437 255.966L143.119 257.173ZM162.602 249.434H159.757L165.447 262.954V268.257H167.859V262.999L173.64 249.434H170.795L166.653 259.654L162.602 249.434ZM169.134 247.386C170.666 247.386 172.055 247.613 173.299 248.069C174.543 248.524 175.598 249.146 176.463 249.935C177.343 250.724 178.018 251.65 178.488 252.712C178.959 253.759 179.194 254.874 179.194 256.058V269.896C179.194 271.079 178.959 272.202 178.488 273.264C178.018 274.311 177.343 275.229 176.463 276.018C175.598 276.807 174.543 277.429 173.299 277.885C172.055 278.34 170.666 278.568 169.134 278.568H162.124C160.591 278.568 159.203 278.34 157.958 277.885C156.714 277.429 155.652 276.807 154.772 276.018C153.907 275.229 153.24 274.311 152.769 273.264C152.299 272.202 152.064 271.079 152.064 269.896V256.058C152.064 254.874 152.299 253.759 152.769 252.712C153.24 251.65 153.907 250.724 154.772 249.935C155.652 249.146 156.714 248.524 157.958 248.069C159.203 247.613 160.591 247.386 162.124 247.386H169.134ZM202.819 247.386C204.352 247.386 205.74 247.613 206.984 248.069C208.229 248.524 209.283 249.146 210.148 249.935C211.028 250.724 211.703 251.65 212.174 252.712C212.644 253.759 212.879 254.874 212.879 256.058V269.896C212.879 271.079 212.644 272.202 212.174 273.264C211.703 274.311 211.028 275.229 210.148 276.018C209.283 276.807 208.229 277.429 206.984 277.885C205.74 278.34 204.352 278.568 202.819 278.568H195.809C194.276 278.568 192.888 278.34 191.644 277.885C190.4 277.429 189.337 276.807 188.457 276.018C187.592 275.229 186.925 274.311 186.454 273.264C185.984 272.202 185.749 271.079 185.749 269.896V256.058C185.749 254.874 185.984 253.759 186.454 252.712C186.925 251.65 187.592 250.724 188.457 249.935C189.337 249.146 190.4 248.524 191.644 248.069C192.888 247.613 194.276 247.386 195.809 247.386H202.819ZM198.153 263.842H202.023V268.257H204.435V263.842H207.94V261.406H204.435V249.434H202.023V261.452H198.29L196.697 261.224L196.469 259.881V249.434H194.056V260.2L194.375 262.112L195.809 263.568L198.153 263.842ZM229.767 247.386C231.3 247.386 232.688 247.613 233.933 248.069C235.177 248.524 236.231 249.146 237.096 249.935C237.976 250.724 238.652 251.65 239.122 252.712C239.592 253.759 239.828 254.874 239.828 256.058V269.896C239.828 271.079 239.592 272.202 239.122 273.264C238.652 274.311 237.976 275.229 237.096 276.018C236.231 276.807 235.177 277.429 233.933 277.885C232.688 278.34 231.3 278.568 229.767 278.568H222.757C221.225 278.568 219.836 278.34 218.592 277.885C217.348 277.429 216.286 276.807 215.406 276.018C214.541 275.229 213.873 274.311 213.403 273.264C212.932 272.202 212.697 271.079 212.697 269.896V256.058C212.697 254.874 212.932 253.759 213.403 252.712C213.873 251.65 214.541 250.724 215.406 249.935C216.286 249.146 217.348 248.524 218.592 248.069C219.836 247.613 221.225 247.386 222.757 247.386H229.767ZM219.639 257.309L219.958 259.221L221.414 260.678L223.736 260.997H229.859L231.52 260.723V264.342L231.292 265.617H229.767H223.895L221.505 265.321L221.05 267.711L223.69 268.257H229.859L232.18 267.938L233.637 266.505L233.955 264.593V253.076L233.637 251.164L232.18 249.707L229.859 249.434H223.736L221.46 249.707L219.958 251.164L219.639 253.076V257.309ZM222.393 252.097L223.895 251.801H229.813L231.201 252.097L231.52 253.303V257.082L231.292 258.334L229.722 258.561H223.895L222.302 258.334L222.074 256.991V253.44L222.393 252.097ZM256.716 247.386C258.248 247.386 259.637 247.613 260.881 248.069C262.125 248.524 263.18 249.146 264.045 249.935C264.925 250.724 265.6 251.65 266.07 252.712C266.541 253.759 266.776 254.874 266.776 256.058V269.896C266.776 271.079 266.541 272.202 266.07 273.264C265.6 274.311 264.925 275.229 264.045 276.018C263.18 276.807 262.125 277.429 260.881 277.885C259.637 278.34 258.248 278.568 256.716 278.568H249.706C248.173 278.568 246.785 278.34 245.54 277.885C244.296 277.429 243.234 276.807 242.354 276.018C241.489 275.229 240.821 274.311 240.351 273.264C239.881 272.202 239.645 271.079 239.645 269.896V256.058C239.645 254.874 239.881 253.759 240.351 252.712C240.821 251.65 241.489 250.724 242.354 249.935C243.234 249.146 244.296 248.524 245.54 248.069C246.785 247.613 248.173 247.386 249.706 247.386H256.716ZM261.268 253.121L260.949 251.21L259.493 249.753L257.171 249.434H251.071L248.727 249.753L247.293 251.21L247.02 253.121V264.593L247.293 266.55L248.772 267.984L251.071 268.257H257.171L259.493 267.984L260.949 266.55L261.268 264.593V253.121ZM258.514 265.617L257.034 265.844H251.208L249.706 265.617L249.387 264.251V253.349L249.615 252.097L251.208 251.847H257.034L258.628 252.097L258.855 253.44V264.342L258.514 265.617ZM283.664 247.386C285.197 247.386 286.585 247.613 287.829 248.069C289.073 248.524 290.128 249.146 290.993 249.935C291.873 250.724 292.548 251.65 293.019 252.712C293.489 253.759 293.724 254.874 293.724 256.058V269.896C293.724 271.079 293.489 272.202 293.019 273.264C292.548 274.311 291.873 275.229 290.993 276.018C290.128 276.807 289.073 277.429 287.829 277.885C286.585 278.34 285.197 278.568 283.664 278.568H276.654C275.121 278.568 273.733 278.34 272.489 277.885C271.244 277.429 270.182 276.807 269.302 276.018C268.437 275.229 267.77 274.311 267.299 273.264C266.829 272.202 266.594 271.079 266.594 269.896V256.058C266.594 254.874 266.829 253.759 267.299 252.712C267.77 251.65 268.437 250.724 269.302 249.935C270.182 249.146 271.244 248.524 272.489 248.069C273.733 247.613 275.121 247.386 276.654 247.386H283.664ZM273.536 257.309L273.854 259.221L275.311 260.678L277.633 260.997H283.755L285.417 260.723V264.342L285.189 265.617H283.664H277.792L275.402 265.321L274.947 267.711L277.587 268.257H283.755L286.077 267.938L287.533 266.505L287.852 264.593V253.076L287.533 251.164L286.077 249.707L283.755 249.434H277.633L275.356 249.707L273.854 251.164L273.536 253.076V257.309ZM276.29 252.097L277.792 251.801H283.71L285.098 252.097L285.417 253.303V257.082L285.189 258.334L283.618 258.561H277.792L276.199 258.334L275.971 256.991V253.44L276.29 252.097Z" fill="white"/>
</svg>
